<svg width="32" height="32" viewBox="0 0 32 32" fill="none" xmlns="http://www.w3.org/2000/svg">
<g clip-path="url(#clip0_1008_29)">
<rect width="32" height="32" rx="7" fill="url(#paint0_linear_1008_29)"/>
<path d="M6.37063 21V10.92H10.5356C10.6336 10.92 10.7596 10.9247 10.9136 10.934C11.0676 10.9387 11.21 10.9527 11.3406 10.976C11.924 11.0647 12.4046 11.2583 12.7826 11.557C13.1653 11.8557 13.4476 12.2337 13.6296 12.691C13.8163 13.1437 13.9096 13.6477 13.9096 14.203C13.9096 15.0243 13.702 15.7313 13.2866 16.324C12.8713 16.912 12.2343 17.276 11.3756 17.416L10.6546 17.479H8.05763V21H6.37063ZM12.1596 21L10.1716 16.898L11.8866 16.52L14.0706 21H12.1596ZM8.05763 15.904H10.4656C10.559 15.904 10.664 15.8993 10.7806 15.89C10.8973 15.8807 11.0046 15.862 11.1026 15.834C11.3826 15.764 11.602 15.6403 11.7606 15.463C11.924 15.2857 12.0383 15.085 12.1036 14.861C12.1736 14.637 12.2086 14.4177 12.2086 14.203C12.2086 13.9883 12.1736 13.769 12.1036 13.545C12.0383 13.3163 11.924 13.1133 11.7606 12.936C11.602 12.7587 11.3826 12.635 11.1026 12.565C11.0046 12.537 10.8973 12.5207 10.7806 12.516C10.664 12.5067 10.559 12.502 10.4656 12.502H8.05763V15.904ZM15.6128 21V10.92H17.1318L20.6178 18.06L24.1038 10.92H25.6228V21H24.0478V14.539L20.9538 21H20.2818L17.1948 14.539V21H15.6128Z" fill="black"/>
</g>
<defs>
<linearGradient id="paint0_linear_1008_29" x1="32" y1="16" x2="0" y2="16" gradientUnits="userSpaceOnUse">
<stop stop-color="#E6B85C"/>
<stop offset="1" stop-color="#C9973B"/>
</linearGradient>
<clipPath id="clip0_1008_29">
<rect width="32" height="32" fill="white"/>
</clipPath>
</defs>
</svg>
